Coordinates
version=1
nRows=19
nColumns=36
inDegrees=yes

Units are S.I. units (second, meters, Newtons, ...)
If the header above contains a line with 'inDegrees', this indicates whether rotational values are in degrees (yes) or radians (no).

endheader
time	pelvis_tilt	pelvis_list	pelvis_rotation	pelvis_tx	pelvis_ty	pelvis_tz	hip_flexion_r	hip_adduction_r	hip_rotation_r	knee_angle_r	knee_angle_r_beta	ankle_angle_r	subtalar_angle_r	mtp_angle_r	hip_flexion_l	hip_adduction_l	hip_rotation_l	knee_angle_l	knee_angle_l_beta	ankle_angle_l	subtalar_angle_l	mtp_angle_l	lumbar_extension	lumbar_bending	lumbar_rotation	arm_flex_r	arm_add_r	arm_rot_r	elbow_flex_r	pro_sup_r	arm_flex_l	arm_add_l	arm_rot_l	elbow_flex_l	pro_sup_l
      8.87000000	     -9.94022728	      0.70335062	     -0.54044382	     -0.24801945	      0.93780513	     -0.59492989	     26.18066991	     -2.28175704	      3.29393836	     24.95441652	      0.43553673	      9.65628333	     -5.52187515	     -7.49999987	     26.68373370	     -3.30063350	     -0.84811941	     25.06028750	      0.43738453	      7.14981106	     -4.95605348	     -7.49999987	    -15.54330555	     -0.83003148	     -0.47850393	      7.23057076	     -8.44886287	      1.27788705	    114.28108876	    111.23924772	      8.77303554	     -5.73095128	     -1.34194955	    113.54427195	    109.29080142
      8.88000000	    -11.10068416	      0.66748494	     -0.42226777	     -0.25474227	      0.93287683	     -0.59455174	     28.66821289	     -2.26807798	      3.07436370	     26.44174121	      0.46149544	     10.16767983	     -5.61562020	     -7.49999987	     29.23803023	     -3.48148208	     -1.06391644	     26.56149816	      0.46358560	      7.64323131	     -4.77620888	     -7.49999987	    -15.91316639	     -0.74835782	     -0.61111924	      8.23228393	     -8.35176647	      1.15577795	    114.86553385	    111.22270228	      9.58773612	     -5.88216595	     -1.42009977	    114.21662484	    109.29026626
      8.89000000	    -11.96576355	      0.64328808	     -0.30444602	     -0.26143614	      0.92818939	     -0.59418037	     30.77135461	     -2.27872042	      2.93007491	     27.82985416	      0.48572259	     10.65890406	     -5.62595033	     -7.49999987	     31.46372299	     -3.68691165	     -1.40910945	     28.05587167	      0.48966734	      8.12950845	     -4.36802077	     -7.49999987	    -16.65196654	     -0.68073801	     -0.77061867	      9.37948227	     -8.24672400	      1.09398397	    115.37215623	    111.19244194	     10.49085621	     -6.15114490	     -1.47365000	    114.88337816	    109.24969967
      8.90000000	    -12.80554506	      0.61842260	     -0.18207003	     -0.26807802	      0.92325578	     -0.59390004	     32.84157771	     -2.31162079	      2.74254867	     29.19541297	      0.50955608	     11.11479910	     -5.78780195	     -7.49999987	     33.64969978	     -3.90410079	     -1.77770532	     29.53757464	      0.51552793	      8.64616790	     -4.02002894	     -7.49999987	    -17.40992561	     -0.57514005	     -0.91193884	     10.47031035	     -8.22885234	      1.09041813	    115.89256392	    111.16753640	     11.37810203	     -6.29684314	     -1.56804546	    115.46410927	    109.20695083
      8.91000000	    -13.83554265	      0.57530543	     -0.05201780	     -0.27481108	      0.91770569	     -0.59361082	     35.13458148	     -2.29899973	      2.72001054	     30.58438406	      0.53379820	     11.56084426	     -5.93560848	     -7.49999987	     36.03362432	     -4.09716786	     -1.88667305	     31.00001206	      0.54105228	      9.31555810	     -3.53034639	     -7.49999987	    -17.91686588	     -0.45559262	     -1.05497988	     11.49816966	     -8.22636185	      1.09420319	    116.36773127	    111.12548648	     12.20935563	     -6.21244463	     -1.74741160	    115.91667649	    109.15284460
      8.92000000	    -14.85349182	      0.53196402	      0.11517006	     -0.28158101	      0.91188376	     -0.59340994	     37.47752560	     -2.32606988	      2.60436289	     32.07918057	      0.55988732	     11.94993269	     -6.09454690	     -7.49999987	     38.41366900	     -4.22292968	     -1.90780603	     32.45323985	      0.56641589	      9.91810154	     -3.23307207	     -7.49999987	    -18.43263473	     -0.29065410	     -1.17425089	     12.54985426	     -8.14939230	      0.99565346	    116.87092347	    111.08761037	     13.06440843	     -6.01046031	     -1.92451545	    116.29943608	    109.13012543
      8.93000000	    -15.92390270	      0.50005888	      0.30752972	     -0.28838303	      0.90578364	     -0.59322825	     39.94250947	     -2.40978650	      2.38665026	     33.67167058	      0.58768152	     12.34696411	     -6.17270518	     -7.49999987	     40.86126626	     -4.29160818	     -1.95672239	     33.88355856	      0.59137966	     10.43989296	     -3.06956120	     -7.49999987	    -18.88395920	     -0.12021266	     -1.25613688	     13.61167289	     -8.03280081	      0.81626776	    117.37129545	    111.04336227	     13.90605577	     -5.78638723	     -2.09093452	    116.61219513	    109.11726504
      8.94000000	    -16.99882656	      0.47086441	      0.49140863	     -0.29521573	      0.89946287	     -0.59302548	     42.46482419	     -2.48609417	      2.24718642	     35.34386732	      0.61686686	     12.68101460	     -6.36261425	     -7.49999987	     43.33673853	     -4.34613972	     -2.00196137	     35.33242551	      0.61666716	     10.77403458	     -3.08311440	     -7.49999987	    -19.35602976	      0.03429416	     -1.33454318	     14.63408525	     -7.94505821	      0.63046555	    117.91077686	    111.02975654	     14.72228699	     -5.65207478	     -2.22007117	    116.99352767	    109.12880920
      8.95000000	    -18.06633924	      0.43210945	      0.65575188	     -0.30202522	      0.89293104	     -0.59279482	     44.99684543	     -2.53100095	      2.19879706	     37.03693858	      0.64641652	     12.98368622	     -6.57494805	     -7.49999987	     45.83250195	     -4.42392313	     -2.03315853	     36.82513229	      0.64271981	     11.04969063	     -3.02773897	     -7.49999987	    -19.82672651	      0.17144156	     -1.45156127	     15.68292560	     -7.86217928	      0.49877204	    118.34115540	    111.01674247	     15.49882320	     -5.68067277	     -2.30981159	    117.40844208	    109.15216846
      8.96000000	    -19.07055258	      0.40906492	      0.86194365	     -0.30877164	      0.88634082	     -0.59276515	     47.43158914	     -2.63431346	      2.15301471	     38.68672653	      0.67521075	     13.28008639	     -6.83980884	     -7.49999987	     48.25604851	     -4.41473117	     -1.97579283	     38.29659098	      0.66840160	     11.27381915	     -3.06127506	     -7.49999987	    -20.37383215	      0.31450102	     -1.64505842	     16.76044568	     -7.77810447	      0.40847834	    118.75244854	    111.01991319	     16.24993035	     -5.75878675	     -2.37494992	    117.86087625	    109.18321797
      8.97000000	    -19.76858598	      0.40639340	      1.10033172	     -0.31526528	      0.88021170	     -0.59283391	     49.47750333	     -2.81998043	      2.02385132	     40.27377243	      0.70290993	     13.53117120	     -7.09503553	     -7.49999987	     50.31362999	     -4.35864588	     -1.92800370	     39.72468160	      0.69332649	     11.39521796	     -3.16093356	     -7.49999987	    -21.26539884	      0.45188224	     -1.85047329	     17.89590910	     -7.69475912	      0.29178128	    119.10765374	    111.02996285	     17.09351566	     -5.74987807	     -2.44528430	    118.16941227	    109.19317703
      8.98000000	    -20.91754884	      0.43456033	      1.34506949	     -0.32186333	      0.87308160	     -0.59297791	     52.03730160	     -3.05513613	      1.99682748	     41.86377812	      0.73066077	     13.94763522	     -7.12227357	     -7.49999987	     52.85842503	     -4.24147485	     -1.86662063	     41.13594082	      0.71795761	     11.64130659	     -3.14191656	     -7.49999987	    -21.54365288	      0.60034528	     -2.08796711	     18.87391517	     -7.55742960	      0.23512391	    119.39504813	    111.03484752	     17.65552231	     -5.68757208	     -2.65242463	    118.60045305	    109.17476947
      8.99000000	    -21.75992196	      0.46977411	      1.52513458	     -0.32814554	      0.86640194	     -0.59292654	     54.25230866	     -3.27850764	      1.88754654	     43.44290621	      0.75822175	     14.30217220	     -7.16533879	     -7.49999987	     55.02481929	     -4.19250672	     -1.87849712	     42.51282119	      0.74198870	     11.85548937	     -3.15174404	     -7.49999987	    -22.16363564	      0.69601484	     -2.24976253	     19.87692174	     -7.41254950	      0.13071621	    119.67583557	    111.04338043	     18.32375608	     -5.65637481	     -2.80190007	    118.93601623	    109.17746456
      9.00000000	    -22.50601959	      0.51447820	      1.67806746	     -0.33421726	      0.85977365	     -0.59277858	     56.37097747	     -3.49759942	      1.78674610	     45.03540310	      0.78601606	     14.61300006	     -7.18329655	     -7.49999987	     57.05605777	     -4.17329831	     -1.92927061	     43.86748391	      0.76563203	     12.05647507	     -3.16591149	     -7.49999987	    -22.84203512	      0.77036455	     -2.35538448	     20.83611240	     -7.30213266	      0.03108156	    119.91986888	    111.05991259	     18.99143945	     -5.67850646	     -2.90144692	    119.18966837	    109.19390746
      9.01000000	    -23.32719792	      0.58691688	      1.78970750	     -0.34020040	      0.85287275	     -0.59265140	     58.57007525	     -3.69387355	      1.81882917	     46.60592796	      0.81342689	     15.01055187	     -7.01683466	     -7.49999987	     59.13882422	     -4.13866439	     -1.94017104	     45.19725677	      0.78884094	     12.30289965	     -3.07425560	     -7.49999987	    -23.36730836	      0.79640613	     -2.46673174	     21.70375870	     -7.21084262	     -0.04077795	    120.11567269	    111.08508292	     19.55795016	     -5.71094723	     -3.00668595	    119.42946511	    109.21258559
      9.02000000	    -24.03320903	      0.64956178	      1.93288762	     -0.34595588	      0.84600531	     -0.59265645	     60.62853071	     -3.92462924	      1.82787495	     48.18052274	      0.84090876	     15.41967556	     -6.84245931	     -7.49999987	     61.11325849	     -4.10174981	     -2.02621806	     46.55143549	      0.81247582	     12.56635219	     -3.01914041	     -7.49999987	    -23.96194064	      0.86761705	     -2.55843918	     22.52491062	     -7.09863147	     -0.13838939	    120.29419486	    111.10370279	     20.10003358	     -5.73801287	     -3.10265789	    119.66326592	    109.23714928
      9.03000000	    -24.69354001	      0.69729341	      2.05428023	     -0.35151946	      0.83917115	     -0.59262159	     62.59975016	     -4.14750357	      1.79401544	     49.68671735	      0.86719681	     15.85381650	     -6.62457813	     -7.49999987	     63.00397499	     -4.10346475	     -2.11791935	     47.87295556	      0.83554070	     12.85322163	     -2.98049443	     -7.49999987	    -24.57365329	      0.92359755	     -2.66435325	     23.34358120	     -6.96967277	     -0.25646371	    120.45154040	    111.11575577	     20.62559546	     -5.76593506	     -3.19536415	    119.85824728	    109.26770504
      9.04000000	    -25.25167526	      0.71737315	      2.13109507	     -0.35687135	      0.83241058	     -0.59241187	     64.42945279	     -4.27819277	      1.74791406	     51.14782635	      0.89269798	     16.24986776	     -6.50790981	     -7.49999987	     64.79302536	     -4.17688007	     -2.23994939	     49.21494225	      0.85896278	     13.11754555	     -2.95596295	     -7.49999987	    -25.22947083	      0.97085723	     -2.71173687	     24.08951292	     -6.90777424	     -0.33262726	    120.61689909	    111.12823394	     21.10763294	     -5.81817385	     -3.23247082	    119.99509631	    109.29983540
      9.05000000	    -25.60029883	      0.74191145	      2.17155448	     -0.36193041	      0.82596366	     -0.59223623	     66.00648819	     -4.38724826	      1.72687683	     52.58443770	      0.91777157	     16.49643934	     -6.56214395	     -7.49999987	     66.34032631	     -4.29363654	     -2.37181210	     50.57672968	      0.88273046	     13.27335192	     -3.00842523	     -7.49999987	    -26.09919763	      1.04894242	     -2.64482577	     24.87291968	     -6.90130948	     -0.39224617	    120.75222517	    111.13822309	     21.63797265	     -5.97181742	     -3.20883743	    120.05976959	    109.32338461
